<?xml version="1.0" encoding="UTF-8" standalone="no"?>
<!-- Created with Inkscape (http://www.inkscape.org/) -->

<svg
   width="173.39336mm"
   height="152.72285mm"
   viewBox="0 0 614.38596 541.14397"
   id="svg2"
   version="1.1"
   inkscape:version="1.2.2 (b0a8486, 2022-12-01)"
   sodipodi:docname="delto.svg"
   xmlns:inkscape="http://www.inkscape.org/namespaces/inkscape"
   xmlns:sodipodi="http://sodipodi.sourceforge.net/DTD/sodipodi-0.dtd"
   xmlns="http://www.w3.org/2000/svg"
   xmlns:svg="http://www.w3.org/2000/svg"
   xmlns:rdf="http://www.w3.org/1999/02/22-rdf-syntax-ns#"
   xmlns:cc="http://creativecommons.org/ns#"
   xmlns:dc="http://purl.org/dc/elements/1.1/">
  <defs
     id="defs4" />
  <sodipodi:namedview
     id="base"
     pagecolor="#ffffff"
     bordercolor="#666666"
     borderopacity="1.0"
     inkscape:pageopacity="0.0"
     inkscape:pageshadow="2"
     inkscape:zoom="0.31171875"
     inkscape:cx="319.19799"
     inkscape:cy="319.19799"
     inkscape:document-units="px"
     inkscape:current-layer="layer2"
     showgrid="false"
     inkscape:window-width="1440"
     inkscape:window-height="847"
     inkscape:window-x="0"
     inkscape:window-y="25"
     inkscape:window-maximized="1"
     fit-margin-left="1"
     fit-margin-top="1"
     fit-margin-right="1"
     fit-margin-bottom="1"
     inkscape:showpageshadow="0"
     inkscape:pagecheckerboard="0"
     inkscape:deskcolor="#d1d1d1" />
  <metadata
     id="metadata7">
    <rdf:RDF>
      <cc:Work
         rdf:about="">
        <dc:format>image/svg+xml</dc:format>
        <dc:type
           rdf:resource="http://purl.org/dc/dcmitype/StillImage" />
      </cc:Work>
    </rdf:RDF>
  </metadata>
  <g
     inkscape:groupmode="layer"
     id="layer2"
     inkscape:label="Layer 2"
     style="display:inline"
     transform="translate(-80.943359,-163.72622)">
    <path
       style="opacity:1;fill:#141414;fill-opacity:1;fill-rule:evenodd;stroke:none;stroke-width:1px;stroke-linecap:butt;stroke-linejoin:miter;stroke-opacity:1"
       d="m 332.3402,191.71224 c 23.28709,-38.63984 57.4012,-35.63932 78.79188,-1.01016 146.44706,237.08171 153.17032,248.0521 274.7615,444.46712 22.67563,36.62958 2.63735,67.46395 -40.4061,67.68022 -251.46627,1.26346 -270.012,1.09393 -524.26917,2.02031 -57.006327,0.2077 61.28261,-66.71746 113.13708,-66.67006 148.6094,0.13585 171.08158,-0.37174 330.31988,-1.01016 25.55365,-0.10245 31.74844,-12.64445 20.20305,-31.31473 -79.0796,-127.88117 -90.75976,-147.3622 -190.91883,-309.10668 -12.46257,-20.12551 -30.40452,-20.04356 -42.4264,-1e-5 C 278.33243,418.81232 266.50251,437.96425 197.98989,555.36715 180.33504,585.62041 60.976057,646.57968 83.842662,607.89509 212.83868,389.66602 219.85643,378.35452 332.3402,191.71224 Z"
       id="path3341"
       inkscape:connector-curvature="0"
       sodipodi:nodetypes="sssssssssssss" />
  </g>
</svg>
